<?xml version="1.0" ?><svg xmlns="http://www.w3.org/2000/svg" width="48.021366mm" height="85.224365mm" viewBox="0 0 48.021366 85.224365">
    <path d="m -3439.4173,-873.94904 c -9.4985,0.0118 -20.8579,6.43338 -22.9298,7.54424 l 3.7434,11.27374 c 0,0 0.9592,-1.15156 6.6208,-2.64119 5.6615,-1.48962 10.6459,-0.42291 13.1852,4.90926 2.5392,5.33218 -0.9405,12.25554 -4.7775,15.59027 -3.837,3.33472 -11.1543,3.09748 -11.1543,3.09748 l 0.6397,18.99316 7.2606,0.94774 3.7052,-8.6837 c 0,0 7.6552,-2.77607 14.0503,-5.21364 6.3951,-2.43756 10.4016,-14.62578 10.9094,-22.46323 0.5078,-7.83745 -4.2508,-15.84383 -13.9563,-21.5992 -2.123,-1.25898 -4.6371,-1.75824 -7.2967,-1.75493 z m -9.2175,68.06045 c -2.7227,-0.011 -6.4945,1.49373 -7.8626,4.99297 0,0 3.5173,5.18002 5.4922,6.56808 1.975,1.38807 7.6742,0.5419 8.4641,-2.8944 0.79,-3.43629 -1.6927,-7.07594 -3.9874,-8.24394 -0.5378,-0.27375 -1.2728,-0.41933 -2.1063,-0.42271 z" fill="#fff" fill-opacity=".988235" paint-order="markers stroke fill" transform="translate(222.84966,145.8071) translate(3241.4869,730.89118)"/>
    <path d="m -3432.3498,-824.40907 c -6.4975,2.30727 -8.6148,1.88523 -8.7433,4.01708 -0.08,1.33215 -0.5836,2.89229 -1.6167,4.82549 -1.652,3.0908 -2.4219,3.5453 -6.3883,3.7705 -2.4805,0.1408 -5.411,-0.13477 -6.6649,-1.72068 -1.3313,-1.68369 -1.5849,-18.48788 -1.539,-20.23527 0.069,-2.63236 1.0084,-3.70217 5.8299,-3.9824 7.1106,-0.41332 9.7105,-2.9832 11.0391,-10.9547 0.5008,-3.0053 0.1679,-3.9807 -2.0265,-5.9392 -3.1836,-2.8419 -4.3505,-2.8234 -10.8411,0.1703 -5.6915,2.6252 -6.148,2.4311 -9.2399,-3.9293 -2.4248,-4.9881 -2.2578,-8.3735 -0.3168,-9.8089 1.2104,-0.89509 4.0138,-2.26422 7.5659,-4.22672 20.938,-11.5677 41.541,1.4332 38.7153,25.82875 -1.2654,10.92504 -7.914,19.39409 -15.7737,22.18505 z m -21.6144,-42.41563 c -5.2601,2.6457 -5.2357,2.67071 -3.3564,5.73976 1.7795,2.90618 1.9131,2.41469 4.019,1.47349 10.519,-4.698 20.4802,2.6262 18.225,13.4004 -1.5958,7.6237 -7.2866,13.04789 -13.8223,13.5729 -3.7183,0.29869 -3.8949,2.89463 -3.6485,7.92945 0.1566,4.65479 0.2792,7.1599 3.7331,7.1909 1.0813,0.01 1.753,-0.39108 2.0631,-2.1409 0.8984,-5.06939 2.5302,-6.16563 6.0256,-6.36403 4.9073,-0.2785 12.6845,-4.40973 15.1694,-8.56032 5.9122,-9.87531 6.1782,-21.71215 0.8791,-29.75247 -5.3375,-8.0986 -18.1609,-8.08528 -29.2871,-2.48918 z m 12.2624,73.05256 c -1.3295,2.1473 -2.2148,2.4893 -5.7447,2.2183 -5.7716,-0.4431 -9.4018,-3.7013 -9.6851,-8.6919 -0.2664,-4.6943 2.4131,-7.3539 7.7112,-7.6546 7.0879,-0.4023 11.6004,7.8574 7.7186,14.1282 z m -5.554,-9.1685 c -2.9896,-1.1622 -5.8481,-0.243 -5.7297,1.8431 0.126,2.2197 5.2726,6.0282 7.0592,5.2235 2.5731,-1.1586 1.6819,-5.8958 -1.3295,-7.0666 z" transform="translate(222.84966,145.8071) translate(3241.4869,730.89118)"/>
</svg>