<?xml version="1.0" ?><svg xmlns="http://www.w3.org/2000/svg" width="118.14239mm" height="103.98016mm" viewBox="0 0 118.14239 103.98016">
    <path d="m -6025.6772,28359.397 c 28.2595,-52.734 94.4738,-92.876 226.0713,-34.283 131.5974,58.593 162.1458,194.501 112.2043,256.439 -49.9424,61.938 -167.8909,109.706 -296.58,41.763 -128.688,-67.943 -41.6956,-263.919 -41.6956,-263.919 z" color="#000" overflow="visible" fill="#fff" paint-order="fill markers stroke" transform="translate(-186.10328,-24.55218) matrix(0.26458333,0,0,0.26458333,1798.7997,-7458.7027)"/>
    <path d="m -5981.9008,28328.47 c -7.4727,50.084 -16.4201,62.915 38.1499,115.035 54.5701,52.12 131.8533,90.612 155.4511,99.373 23.5979,8.76 77.8731,12.83 100.1928,2.035 22.3197,-10.796 17.5017,18.494 -1.7699,37.165 -19.2716,18.671 -56.5366,73.976 -140.4074,72.826 -83.8709,-1.15 -148.0768,1.062 -200.8771,-91.055 -52.8003,-92.116 -12.0939,-160.96 -5.5062,-176.092 6.5878,-15.132 23.7946,-44.687 54.7668,-59.287 z" fill="#72440e" transform="translate(-186.10328,-24.55218) matrix(0.26458333,0,0,0.26458333,1798.7997,-7458.7027)"/>
    <path d="m -5790.3875,28665.486 c 0,0 3.1494,-1.485 -63.188,-1.303 -77.643,0.214 -82.4872,-0.63 -111.4508,-19.444 -35.4632,-23.032 -73.2547,-59.708 -74.2414,-72.05 -1.608,-20.092 -3.4733,-22.496 -17.4612,-22.496 -12.0582,0 -13.1961,-1.801 -6.3504,-10.051 10.2181,-12.311 3.0335,-38.403 -10.5732,-38.403 -13.0649,0 -12.7431,-11.278 0.464,-16.347 17.3483,-6.657 12.3922,-30.101 -7.4136,-35.072 -20.8377,-5.23 -18.821,-22.234 2.2769,-19.195 12.05,1.736 16.2053,-4.343 26.0027,-38.044 10.5873,-36.419 39.9836,-78.976 66.9276,-96.663 39.8798,-26.178 106.0528,-8.522 157.1886,9.701 54.6172,19.464 83.0784,45.192 123.409,77.072 27.5886,21.807 37.7513,35.552 47.1007,63.7 15.9834,48.123 10.2565,98.73 -14.0454,124.095 -10.7376,11.208 -16.0469,22.814 -13.4887,29.482 3.1495,8.207 -0.7485,11.567 -15.3588,13.241 -14.796,1.695 -22.5749,6.771 -17.3302,15.296 7.3643,11.968 -11.5941,24.409 -19.4243,14.486 -9.8277,13.456 -25.7253,15.742 -25.7253,15.742 5.8066,17.055 -21.4712,24.691 -27.3212,6.253 z m -4.4297,-67.656 c 4.6738,-2.589 9.3103,-5.503 20.0015,24.721 6.1688,17.44 23.4998,13.156 23.4998,-3.879 0,-3.4 4.9643,-6.182 11.0313,-6.182 6.0669,0 12.6603,-6.23 14.6517,-13.844 1.9904,-7.614 6.9052,-13.844 10.9202,-13.844 8.1269,0 32.6165,-20.464 32.6165,-27.255 0,-2.391 -21.5359,-3.128 -47.8564,-1.642 -43.0654,2.434 -52.2455,0.471 -91.6874,-19.568 -104.9744,-53.344 -163.8144,-105.762 -169.9338,-151.385 -4.476,-33.372 -9.637,-35.199 -29.1955,-10.335 -16.3224,20.75 -18.2896,34.392 -5.6936,39.475 5.0096,2.021 2.1376,10.703 -5.1289,11.02 -7.7475,0.339 -10.7416,-1.801 -9.8165,5.677 0.8242,6.662 -0.9231,17.701 -3.8829,24.53 -13.3705,30.848 15.1309,104.444 56.4513,145.765 24.3755,24.374 25.7697,24.846 38.8769,13.152 13.0983,-11.685 20.3142,-7.146 15.8462,7.221 -6.4764,20.827 12.6897,24.447 82.4328,23.185 l 55.3758,-1.003 c -1.9459,-18.045 -6.7105,-42.193 1.491,-45.809 z m -67.2493,28.913 c 0,-7.839 3.1151,-14.253 6.9223,-14.253 3.8072,0 6.9224,4.489 6.9224,9.975 0,5.486 -3.1152,11.899 -6.9224,14.252 -3.8072,2.354 -6.9223,-2.135 -6.9223,-9.974 z m 34.7157,-9.061 c 0.08,-12.594 1.3901,-13.587 6.8165,-5.192 8.6725,13.421 8.6725,20.766 0,20.766 -3.8073,0 -6.875,-7.008 -6.8165,-15.574 z m 69.1136,-32.88 c 0,-8.672 7.346,-8.672 20.7661,0 8.3962,5.427 7.4025,6.731 -5.1913,6.816 -8.5657,0.07 -15.5748,-3.008 -15.5748,-6.816 z m -230.1549,-60.561 c -6.6621,-1.513 -12.1125,-5.637 -12.1125,-9.165 0,-7.435 5.1802,-7.479 23.7672,-0.201 15.495,6.068 6.3141,13.446 -11.6547,9.365 z m -14.4206,-54.804 c -2.5382,-2.538 -4.6143,-6.919 -4.6143,-9.735 0,-6.655 26.7614,0.332 31.6651,8.264 4.3519,7.04 -20.1477,8.374 -27.0508,1.471 z m 312.9587,55.034 c 15.0332,-9.474 16.1549,-13.833 12.8713,-50.045 -4.5941,-50.66 -13.4291,-64.451 -62.3194,-97.267 -77.7994,-52.221 -178.9604,-76.973 -215.838,-52.81 -22.4276,14.695 -29.3893,51.142 -15.0613,78.85 16.9427,32.763 67.777,73.023 136.6555,108.228 57.1927,29.233 66.517,31.964 95.3091,27.912 17.553,-2.47 39.3249,-9.16 48.3828,-14.868 z m -61.4608,0.221 c -72.9572,-27.604 -180.401,-101.322 -193.3934,-132.688 -10.556,-25.485 -3.0132,-56.393 13.7641,-56.393 6.9768,0 14.5962,-3.091 16.9316,-6.87 2.5815,-4.177 15.6333,-1.034 33.2873,8.014 31.2989,16.042 24.0144,26.387 -8.9632,12.728 -24.6993,-10.231 -34.6754,-4.719 -34.6754,19.159 0,26.575 65.3801,85.868 127.7742,115.878 27.6027,13.277 55.2034,24.14 61.3318,24.14 12.7139,0 25.475,-20.258 25.475,-40.441 0,-16.598 -51.2226,-70.367 -78.7677,-82.683 -10.9606,-4.901 -18.001,-10.84 -15.6445,-13.197 5.2055,-5.205 59.8025,18.582 59.8025,26.056 0,2.918 12.4587,18.274 27.6875,34.123 29.0533,30.239 37.4525,66.343 18.9966,81.66 -11.6446,9.664 -40.7614,15.374 -53.6064,10.514 z" fill="#030303" transform="translate(-186.10328,-24.55218) matrix(0.26458333,0,0,0.26458333,1798.7997,-7458.7027)"/>
</svg>