<?xml version="1.0" ?><!-- Created with Inkscape (http://www.inkscape.org/) --><svg xmlns:inkscape="http://www.inkscape.org/namespaces/inkscape" xmlns:sodipodi="http://sodipodi.sourceforge.net/DTD/sodipodi-0.dtd" xmlns="http://www.w3.org/2000/svg" xmlns:svg="http://www.w3.org/2000/svg" width="94.564201mm" height="110.65826mm" viewBox="0 0 94.564201 110.65826" version="1.1" id="svg93867" inkscape:version="1.1.2 (76b9e6a115, 2022-02-25)" sodipodi:docname="food_red_apple_color.svg">
  <sodipodi:namedview id="namedview93869" pagecolor="#ffffff" bordercolor="#666666" borderopacity="1.0" inkscape:pageshadow="2" inkscape:pageopacity="0.0" inkscape:pagecheckerboard="0" inkscape:document-units="mm" showgrid="false" inkscape:zoom="0.66368547" inkscape:cx="476.88252" inkscape:cy="363.87719" inkscape:window-width="1866" inkscape:window-height="1016" inkscape:window-x="54" inkscape:window-y="27" inkscape:window-maximized="1" inkscape:current-layer="layer1"/>
  <defs id="defs93864"/>
  <g inkscape:label="Capa 1" inkscape:groupmode="layer" id="layer1" transform="translate(20.9707,-52.308459)">
    <g id="g93832" transform="translate(-2035.3174,-1275.3636)">
      <path style="color:#000000;overflow:visible;fill:#ed796b;fill-opacity:1;stroke:none;stroke-width:1.0088;stroke-linecap:round;stroke-linejoin:round;paint-order:fill markers stroke" d="m 2063.7807,1353.6573 c -9.4436,0.3763 -37.2512,2.3521 -41.8508,12.168 -4.6,9.8159 -11.5362,39.055 10.4888,54.0345 22.0249,14.9795 48.9594,27.7856 64.7797,0.094 15.8203,-27.6915 6.3277,-61.1359 -1.6276,-64.7041 2.6731,-12.945 4.3805,-35.0857 -16.3531,-15.7361 -20.7339,19.3495 -15.437,14.1436 -15.437,14.1436 z" id="path92378" sodipodi:nodetypes="csssccc"/>
      <path style="fill:#75a262;fill-opacity:1;stroke:none;stroke-width:1;stroke-linecap:round;stroke-linejoin:round;paint-order:markers stroke fill;stop-color:#000000" d="m 2065.0927,1361.8495 c -2.8363,-5.1185 -1.6291,-7.1868 3.0692,-9.8835 4.6984,-2.6967 14.9968,-16.298 17.9932,-17.7903 2.9964,-1.4924 10.473,-2.2385 10.473,-2.2385 0,0 2.022,15.9314 -4.7128,22.6469 -6.7349,6.7156 -14.5168,13.9547 -26.8226,7.2654 z" id="path92735"/>
      <path style="fill:#030303;fill-opacity:1;stroke-width:1.83143" d="m 2054.4436,1434.8393 c -15.8321,-5.956 -25.4478,-12.6894 -32.3803,-22.6748 -5.7279,-8.25 -7.7166,-10.4628 -7.7166,-25.2073 0,-16.9724 3.8843,-21.9449 12.7554,-27.7573 4.5938,-3.01 30.5853,-8.3242 30.0885,-4.1594 -0.237,1.9902 -5.8485,2.0911 -12.9969,3.1521 -18.9832,2.8176 -25.463,10.489 -25.463,30.1463 0,19.9441 18.4323,38.1507 44.8383,44.2891 18.1462,4.2182 29.156,-3.5097 35.8461,-25.1607 6.8676,-22.2252 4.8249,-49.5117 -5.406,-49.639 -1.8809,1.7113 -5.1466,5.5038 -9.0979,7.5184 -3.9516,2.0146 -14.6513,1.2623 -19.9423,-0.9201 0,0 -2.577,2.2609 -3.1997,3.2682 -0.6619,1.0714 1.2382,1.8314 4.5786,1.8314 3.3409,0 5.2411,0.7601 4.5786,1.8315 -1.7106,2.768 -13.2147,2.1947 -19.3209,-0.9628 -6.4765,-3.3493 -7.2511,-7.2239 -1.137,-5.6894 3.2395,0.8132 5.1508,-0.13 7.9425,-3.9222 4.2743,-5.8058 6.8561,-22.7399 3.915,-25.6809 -3.1426,-3.1423 -0.1778,-8.0299 4.4715,-7.3698 3.5353,0.502 4.21,1.8538 4.6918,9.3991 l 0.5629,8.8128 3.7194,-4.7285 c 6.7742,-8.612 18.2775,-16.2033 23.9793,-10.8533 5.2189,4.8973 2.2591,18.1253 -2.4377,22.535 14.1895,6.2692 13.5676,30.002 7.628,52.8696 -4.0031,15.4117 -6.803,20.2812 -15.4592,26.8835 -8.8371,6.7403 -20.9308,7.4958 -35.0384,2.1885 z m 33.055,-79.0177 c 8.571,-9.0879 10.6233,-21.0926 3.606,-21.0926 -4.4777,0 -13.2959,8.9711 -16.3699,16.6536 -2.3384,5.8445 -3.5377,7.068 -5.4066,5.517 -3.153,-2.6169 -5.3659,-0.3211 -2.7401,2.8431 1.1219,1.3518 4.9323,2.4578 8.4672,2.4578 4.967,0 7.7944,-1.4492 12.4434,-6.3789 z" id="path92380" sodipodi:nodetypes="sssssscscssssssssscsscsssssssssssss"/>
    </g>
  </g>
</svg>