<?xml version="1.0" ?><!-- Created with Inkscape (http://www.inkscape.org/) --><svg xmlns:inkscape="http://www.inkscape.org/namespaces/inkscape" xmlns:sodipodi="http://sodipodi.sourceforge.net/DTD/sodipodi-0.dtd" xmlns="http://www.w3.org/2000/svg" xmlns:svg="http://www.w3.org/2000/svg" width="102.00647mm" height="194.36696mm" viewBox="0 0 102.00647 194.36696" version="1.1" id="svg79931" inkscape:version="1.1.2 (76b9e6a115, 2022-02-25)" sodipodi:docname="food_pinapple_color.svg">
  <sodipodi:namedview id="namedview79933" pagecolor="#ffffff" bordercolor="#666666" borderopacity="1.0" inkscape:pageshadow="2" inkscape:pageopacity="0.0" inkscape:pagecheckerboard="0" inkscape:document-units="mm" showgrid="false" inkscape:zoom="0.66368547" inkscape:cx="460.30841" inkscape:cy="977.11948" inkscape:window-width="1866" inkscape:window-height="1016" inkscape:window-x="54" inkscape:window-y="27" inkscape:window-maximized="1" inkscape:current-layer="layer1"/>
  <defs id="defs79928"/>
  <g inkscape:label="Capa 1" inkscape:groupmode="layer" id="layer1" transform="translate(16.718623,109.9405)">
    <g id="g79906" transform="translate(-2963.4809,-2442.2193)">
      <path style="color:#000000;overflow:visible;fill:#eec86d;fill-opacity:1;stroke:none;stroke-width:1.0088;stroke-linecap:round;stroke-linejoin:round;paint-order:fill markers stroke" d="m 2966.7827,2500.8892 c -2.8805,-13.1301 -12.0559,-55.401 26.3253,-72.7318 1.4302,-2.3387 12.2326,-3.644 13.774,-1.8306 2.1334,-1.2026 28.2778,2.2952 28.5226,55.3084 0.2151,46.6396 -55.7873,60.3755 -68.6219,19.254 z" id="path75759" sodipodi:nodetypes="cccsc"/>
      <path style="color:#000000;overflow:visible;fill:#8b9c5b;fill-opacity:1;stroke:none;stroke-width:1.0088;stroke-linecap:round;stroke-linejoin:round;paint-order:fill markers stroke" d="m 2993.108,2428.1574 c -15.7365,-19.1791 -43.8221,-26.6683 -43.8221,-26.6683 10.7495,0.7937 20.8398,1.1064 41.4482,9.0974 -8.2798,-13.641 -21.1321,-21.7505 -33.6067,-30.3169 10.2094,3.5423 18.8071,2.8874 32.0597,14.3544 -6.6676,-13.6494 -16.8615,-23.6721 -29.4992,-31.1811 11.3837,5.2387 23.9755,7.2166 33.58,17.2588 -5.9022,-14.6255 -17.1124,-22.8596 -27.8991,-31.6037 12.1557,4.3869 26.0577,7.203 34.3688,22.2873 l -19.4591,-29.0804 c 7.3462,4.6716 11.4766,7.3432 19.7642,17.7149 0.1993,-13.4999 3.863,-21.0421 8.1616,-25.4201 l -2.9873,26.7163 c 11.1403,-12.3428 14.4991,-11.4578 20.3506,-14.8104 l -16.7767,26.2603 27.2057,-11.5699 c -9.0443,8.5057 -20.231,13.48 -29.0727,26.9804 l 35.4738,-13.7543 c -11.8327,9.0902 -28.0524,17.6583 -32.0864,27.6765 l 26.5386,-7.6572 c -13.6808,11.6267 -27.2871,21.1495 -29.9679,31.8854 -1.5414,-1.8134 -7.1462,0.8708 -13.774,1.8306 z" id="path76138" sodipodi:nodetypes="cccccccccccccccccccccc"/>
      <path id="path75761" style="color:#000000;font-style:normal;font-variant:normal;font-weight:normal;font-stretch:normal;font-size:medium;line-height:normal;font-family:sans-serif;font-variant-ligatures:normal;font-variant-position:normal;font-variant-caps:normal;font-variant-numeric:normal;font-variant-alternates:normal;font-variant-east-asian:normal;font-feature-settings:normal;font-variation-settings:normal;text-indent:0;text-align:start;text-decoration:none;text-decoration-line:none;text-decoration-style:solid;text-decoration-color:#000000;letter-spacing:normal;word-spacing:normal;text-transform:none;writing-mode:lr-tb;direction:ltr;text-orientation:mixed;dominant-baseline:auto;baseline-shift:baseline;text-anchor:start;white-space:normal;shape-padding:0;shape-margin:0;inline-size:0;clip-rule:nonzero;display:inline;overflow:visible;visibility:visible;isolation:auto;mix-blend-mode:normal;color-interpolation:sRGB;color-interpolation-filters:linearRGB;solid-color:#000000;solid-opacity:1;vector-effect:none;fill:#030303;fill-opacity:1;fill-rule:nonzero;stroke:none;stroke-width:4.80439;stroke-linecap:round;stroke-linejoin:round;stroke-miterlimit:4;stroke-dasharray:none;stroke-dashoffset:0;stroke-opacity:1;color-rendering:auto;image-rendering:auto;shape-rendering:auto;text-rendering:auto;enable-background:accumulate;stop-color:#000000" d="m 3008.8382,2332.279 c -0.2066,0 -0.4121,0.032 -0.611,0.087 -10.6513,4.1874 -10.1031,12.8829 -10.4453,22.6739 -2.9976,-9.0394 -14.5864,-15.5067 -22.0252,-19.1816 -2.5652,-1.2613 -4.7937,2.2111 -2.5783,4.0177 6.0791,4.9387 13.5756,15.1705 19.2197,23.0015 -7.7108,-9.5506 -21.5136,-15.2949 -30.3147,-16.5054 -2.7161,-0.3717 -3.8355,3.3642 -1.3628,4.5474 11.6071,5.5451 23.2738,18.0614 28.0035,24.9762 -6.8989,-6.9096 -21.7853,-12.2393 -29.5121,-14.6214 -1.2155,-0.3725 -2.5108,0.2665 -2.955,1.4578 -0.4441,1.1912 0.1167,2.5222 1.2796,3.0364 11.7526,5.1745 24.1794,17.1638 28.9633,25.4828 -6.684,-9.7008 -20.3754,-14.2245 -29.9597,-13.4531 -2.7201,-0.2033 -3.6206,3.565 -1.1026,4.6136 10.6762,4.4386 24.0788,16.4752 31.2643,25.1604 -15.1044,-6.798 -29.2854,-9.634 -37.8015,-8.6912 -2.6918,0.2983 -2.9093,4.1295 -0.2685,4.7304 21.4444,4.877 33.7656,13.1478 42.5886,23.4267 -12.1178,4.7976 -24.2291,19.5213 -24.9426,30.4967 -4.7224,7.7557 -4.203,18.6112 -3.666,26.8541 -0.034,39.939 30.0283,54.9752 64.3364,30.199 17.7389,-12.8104 9.9774,-58.1631 -3.3364,-81.3885 -3.2389,-4.2583 -8.504,-7.4565 -15.023,-8.3368 6.4021,-14.8022 29.212,-24.8423 32.5086,-29.7402 4.6616,-6.8721 -22.0735,0.4976 -25.936,1.9542 7.0737,-7.2919 18.506,-14.5809 31.2062,-19.4994 1.1731,-0.4569 4.9311,-3.2404 -0.3185,-5.4544 -14.3795,-1.0073 -26.5383,5.8321 -35.1168,10.8204 6.6642,-7.1145 19.1526,-16.0973 30.2639,-20.9042 1.1509,-0.4987 1.7245,-1.799 1.3169,-2.9853 -0.4078,-1.1863 -1.6596,-1.8592 -2.8741,-1.5449 -7.5458,1.9572 -16.2519,2.1353 -27.6073,11.3296 4.0719,-7.7488 11.0391,-16.4414 18.5991,-21.4101 0.9961,-0.656 1.3602,-1.9434 0.8552,-3.0238 -0.505,-1.0805 -1.7264,-1.6268 -2.8685,-1.2833 -6.7579,2.0386 -15.3981,5.7831 -21.7167,13.2727 -0.074,-7.1663 1.1419,-15.7398 4.0192,-20.4636 0.9814,-1.6125 -0.1946,-3.6748 -2.0819,-3.6513 z m -5.3294,10.5492 c -1.065,6.2527 -0.5747,13.0247 -0.4316,19.4256 0.057,2.4978 3.4151,3.2598 4.5447,1.0312 3.0644,-6.0554 6.5379,-9.2797 10.3657,-11.3484 -5.4839,5.9416 -9.5546,12.962 -12.4754,20.7517 -0.8488,2.2654 1.8048,4.2233 3.7189,2.7437 5.9323,-4.5871 10.4904,-7.2202 14.4174,-8.8805 -7.8199,5.1332 -11.3269,7.9937 -17.3812,17.9349 -2.2621,4.1977 -1.3399,6.484 0.936,5.2634 12.2766,-6.5936 18.7428,-8.9816 23.4796,-10.0055 -10.954,6.2962 -17.9444,11.3978 -22.8817,22.3885 -1.4715,2.2167 -0.7193,5.1228 1.4528,3.5862 5.8435,-4.1408 11.6798,-6.3501 17.6041,-7.4781 -8.5126,5.7768 -20.7056,16.5495 -21.5175,26.2725 -2.9668,0.4178 -7.8133,0.1046 -10.8024,1.3053 -7.2694,-8.6847 -16.3016,-16.8886 -30.8074,-22.6003 6.4235,0.7297 14.1441,3.1619 25.4251,9.7156 2.2589,1.3107 4.692,-1.4159 3.1338,-3.5115 -6.2377,-8.3788 -13.5457,-17.6008 -22.9613,-24.5418 6.5655,1.9876 12.401,5.3938 17.2577,11.1775 1.6321,1.9418 4.7689,0.3573 4.1745,-2.1088 -2.1249,-8.7944 -7.0481,-16.1727 -14.2709,-22.2588 5.2939,2.2816 10.2717,5.5741 14.7657,11.4558 2.3798,2.3332 5.1439,-0.4707 3.9989,-2.6426 -4.6926,-8.2823 -9.1409,-17.1533 -18.4339,-24.9937 7.1401,3.3601 13.6741,8.7639 19.4687,17.3987 2.2893,2.5096 4.5607,0.704 3.4485,-1.5235 -1.8684,-9.682 -7.2208,-16.5721 -12.8862,-24.0879 4.7924,3.2818 8.7563,7.5086 11.0178,14.4059 0.3846,1.1684 1.5897,1.8574 2.7919,1.5963 1.2022,-0.2612 2.0128,-1.3881 1.878,-2.6108 -0.237,-6.1384 -1.0578,-12.4865 0.9697,-17.8606 z m 8.4864,86.244 c 0.379,0.1588 0.758,0.3351 1.1349,0.5265 -1.2662,1.0267 -4.3886,3.5442 -7.1631,5.3575 -3.9148,-1.1449 -8.2721,-2.8798 -10.2216,-4.428 4.1374,-2.189 9.4804,-4.6103 16.2498,-1.456 z m 5.1866,2.8663 c 2.7761,1.1157 5.7773,3.9939 5.525,6.7678 -3.0331,-0.3512 -10.6227,-0.9562 -12.0801,-3.1499 3.0869,-1.3958 4.4179,-2.3638 6.5551,-3.6179 z m -27.0274,1.0753 c 3.7381,2.3529 7.3462,3.3402 11.2247,4.4681 -4.6888,3.2079 -8.3655,6.7577 -13.5561,8.1377 -0.082,-0.044 -0.1703,-0.09 -0.2517,-0.1329 -2.6881,-1.5022 -5.3644,-2.8435 -7.7498,-4.4911 0.6067,-0.9357 0.1732,-2.2564 2.6499,-2.5054 1.2048,3.7798 6.211,5.3855 8.2961,4.4879 1.9442,-0.088 4.8378,-2.8157 1.1427,-3.1993 -3.2537,-0.384 -6.2399,1.6693 -6.2866,-3.8029 0.939,-3.4679 3.0932,-2.3484 4.5308,-2.9621 z m 15.858,4.5608 c 3.8475,2.0554 11.5826,5.6611 17.3025,7.1906 -6.5639,4.2225 -12.7536,6.8805 -18.68,8.4377 -4.0608,-1.9487 -8.9741,-3.5546 -12.6495,-5.4259 4.9539,-2.9435 9.5562,-7.355 14.027,-10.2024 z m -29.2897,7.1723 c 2.0392,1.3568 4.293,2.6345 6.2366,3.7044 -4.7734,2.7629 -8.9794,5.1532 -12.1482,6.9361 0.6062,-3.9087 2.0729,-7.6334 5.9116,-10.6405 z m 21.9232,1.5759 c -0.6157,1.175 -0.1625,2.6266 1.0124,3.2426 4.1024,2.7058 5.1263,4.0948 9.8949,1.3517 1.148,-0.6651 1.5393,-2.1347 0.8744,-3.2826 -0.6651,-1.1482 -2.676,-0.093 -3.824,0.5723 -3.5067,2.1065 -5.7386,-3.9514 -7.9577,-1.884 z m 26.4786,1.3282 c 2.1751,1.8644 4.7847,5.4074 3.2673,9.9947 -0.6334,0.316 -5.5587,2.7695 -7.706,3.8405 -3.1859,-1.4209 -8.5048,-2.6019 -12.2683,-4.3683 5.82,-2.6407 11.6376,-5.286 16.707,-9.4669 z m -37.096,2.9495 c 2.115,1.5139 8.2561,4.8214 13.2673,6.9635 -7.2997,3.9385 -12.6206,5.9557 -17.9159,7.9478 -3.9921,-1.8493 -9.5548,-4.5147 -11.9808,-6.029 1.0252,-0.5772 4.1257,-1.2417 5.3628,-1.944 -0.7804,1.5094 0.4161,3.3126 1.6776,3.5673 4.416,2.4056 7.0886,2.0134 10.0265,-0.4947 1.8958,-1.7241 2.3031,-4.4637 0.08,-3.9248 -6.053,1.4671 -6.1512,2.6845 -9.6675,-0.3504 2.7897,-1.5916 5.8998,-3.8424 9.1505,-5.7357 z m 27.4405,5.2284 c -0.4033,1.2641 0.2947,2.6158 1.5588,3.0189 3.8921,1.5069 6.3626,1.094 9.2548,-2.3365 0.8528,-1.0164 1.1144,-4.511 -1.239,-2.6018 -4.7739,4.5739 -7.4622,-1.4877 -9.5746,1.9194 z m -10.7909,3.5549 c 3.6193,1.7221 7.1673,3.3735 10.4554,4.87 -5.7015,2.8427 -7.3969,3.6906 -15.0425,7.4965 -3.8145,-1.499 -7.5926,-3.0369 -11.1355,-4.5594 5.2349,-2.4059 10.4682,-4.7596 15.7226,-7.8071 z m -36.1192,2.6472 c 2.268,1.7415 5.4344,3.4972 9.2216,5.3449 l -10.6311,5.2793 c -1.05,-3.7262 -0.3691,-6.5054 1.4095,-10.6242 z m 60.7099,0.5463 c 0.1508,0.9662 0.2704,1.8188 0.3999,2.7217 -1.1029,-0.4033 -2.2744,-0.9 -3.2385,-1.3063 0.5526,-0.2758 2.5013,-1.247 2.8386,-1.4154 z m -26.3003,1.7907 c -0.4986,0 -0.9838,0.1626 -1.3882,0.4546 -1.038,0.75 -1.6177,0.9578 -2.1259,0.9899 -0.5082,0.032 -1.2171,-0.1118 -2.4865,-0.7705 -1.1777,-0.6107 -2.6275,-0.1512 -3.2385,1.0265 -0.6107,1.1776 -0.1516,2.6274 1.026,3.2384 1.6706,0.8667 3.2969,1.408 5.0025,1.3001 1.7055,-0.1079 3.2186,-0.8653 4.6365,-1.8897 1.0754,-0.7771 1.3172,-2.2788 0.5402,-3.3541 -0.4556,-0.6305 -1.1883,-1.0013 -1.9661,-0.9952 z m 17.8347,2.4293 c 2.414,1.061 4.5231,1.9586 6.1686,2.617 1.5262,0.6105 2.4214,1.0081 3.4557,1.2203 1.3287,1.0611 0.6438,2.4226 0.4884,3.7186 -0.052,0.081 -0.098,0.1654 -0.1401,0.2523 -0.6363,1.3301 -3.1295,3.6048 -6.7899,5.9903 -5.0294,-1.7677 -13.8316,-3.9161 -20.3517,-6.3914 7.3692,-3.6706 12.4655,-5.0609 17.169,-7.4071 z m -37.455,3.1779 c 3.4648,-1.4644 7.1465,3.1061 10.9642,4.6469 -5.0847,3.6826 -9.9643,5.1999 -14.2205,7.068 -3.8315,-1.9543 -7.1727,-3.7649 -9.6937,-5.2846 4.4326,-2.6441 8.7152,-4.6405 12.95,-6.4303 z m 32.4291,5.4967 c 4.3533,3.7398 8.9495,3.7914 11.6237,1.7777 1.0597,-0.7981 1.2718,-2.3042 0.4738,-3.364 -0.7981,-1.0599 -2.3043,-1.272 -3.3642,-0.4739 -0.7156,0.5389 -3.216,1.93 -6.4723,-0.8676 -3.1042,-1.8145 -4.1609,1.193 -2.261,2.9278 z m -38.2571,0.122 c -2.3328,-1.7011 -3.334,-0.9227 -3.7341,-0.1178 -0.5901,1.188 -0.1057,2.6297 1.0823,3.2201 1.5471,0.7686 2.3502,1.3947 3.6989,1.836 1.3487,0.4414 3.0345,0.1854 4.5244,-0.4942 1.207,-0.5506 4.1649,-2.8665 1.1886,-3.1826 -2.7116,-0.2879 -3.8777,0.8403 -6.7601,-1.2615 z m 22.7653,0.1689 c 4.7724,4.1608 15.6979,3.7679 18.2407,7.9979 -3.9852,4.3071 -7.8824,4.3816 -17.3339,8.3038 -6.4892,-0.7233 -12.4669,-3.1349 -15.7088,-7.6855 4.7141,-2.3403 9.6032,-6.0286 14.802,-8.6162 z m -33.1188,4.3242 c 2.0843,1.3153 4.6371,2.7582 7.5184,4.2816 -2.8987,2.3582 -5.3348,2.9346 -6.9549,3.4312 -1.7824,-2.5629 -3.196,-4.2972 -0.5635,-7.7128 z m 64.4411,0.9936 c 1.5064,0.7624 1.0503,1.4879 0.1497,2.2042 -0.6227,-0.2115 -1.2312,-0.4199 -2.0205,-0.6908 0.6707,-0.4959 1.2921,-0.9997 1.8708,-1.5134 z m -39.3976,3.1372 c -0.5998,1.1832 0.7612,1.9434 1.9444,2.5434 4.0605,2.3086 6.2746,4.587 10.5577,2.4985 2.9218,-2.0655 5.2616,-5.948 -1.5505,-3.4856 -3.3343,1.5552 -8.4686,-3.8501 -10.9516,-1.5563 z m 32.3719,1.6766 c 3.5788,1.2467 5.9081,2.0365 7.3115,2.5065 1.7737,2.3242 1.1285,4.3115 -0.3256,6.8605 -5.7079,3.9849 -6.1792,3.889 -9.4828,5.1663 -0.6198,-0.2446 -2.715,-0.9685 -3.2979,-1.2077 1.6959,0.2261 6.0556,-1.7789 5.8763,-3.2091 -0.3729,-1.273 -1.7072,-2.0028 -2.9803,-1.6301 -3.0559,1.3622 -3.9375,-1.8486 -6.3758,-1.9022 -2.9111,0.3089 -1.8785,2.2688 -1.0051,3.692 0.7823,0.7464 1.5032,1.6962 2.1537,2.1534 -2.8741,-1.199 -6.7628,-2.8078 -10.0153,-4.2269 6.6183,-1.9551 12.6966,-5.0493 18.1413,-8.2027 z m -44.5708,1.2027 c 4.1256,3.1264 9.3744,5.3546 14.9766,7.0856 -5.3673,3.3971 -7.0934,3.9465 -16.77,7.2846 -0.6005,-0.2957 -1.8406,-0.9098 -2.3968,-1.1892 2.9037,0.037 10.828,-5.2565 6.1405,-5.382 -9.6203,3.597 -9.0707,-3.8948 -10.2512,-1.7276 -0.8157,2.59 -0.7549,4.0624 0.6309,5.3246 -1.6377,-0.8645 -2.3744,-1.2521 -3.1885,-2.4113 -0.8893,-0.5319 -0.7423,-2.3473 -0.8554,-3.2133 2.1937,-1.0637 6.3917,-3.1341 11.7139,-5.7714 z m 20.9498,8.4595 c 3.3874,3.0306 10.2438,6.1555 15.5179,7.5281 -4.3037,2.1288 -9.64,4.1184 -13.7443,5.8839 0.541,-0.6915 0.6617,-1.6232 0.3147,-2.4298 -0.5245,-1.2188 -1.9378,-1.7815 -3.1565,-1.2569 -0.3726,0.1605 -0.3051,0.1305 -0.4342,0.1669 -0.3807,-0.4556 -1.2404,-1.4671 -2.9361,-2.6227 -0.3923,-0.2674 -0.8551,-0.4125 -1.3297,-0.4171 -0.8029,-0.01 -1.5561,0.3861 -2.0083,1.0494 -0.747,1.0964 -0.4638,2.5908 0.6324,3.338 1.1359,0.7741 1.7811,2.3352 2.3571,2.9656 -4.2519,-2.1362 -9.5352,-3.9289 -13.7387,-5.8068 4.0813,-1.2616 7.7118,-2.9805 18.5257,-8.3986 z m 29.3679,4.9616 c -0.2909,0.9811 -0.628,1.9296 -1.0153,2.8417 -0.6534,-0.2255 -1.455,-0.5137 -2.3923,-0.8623 1.3084,-0.7288 2.4425,-1.3883 3.4076,-1.9794 z m -60.3613,1.5468 c 0.5421,0.291 1.1712,0.6167 1.7947,0.9404 -0.497,0.1968 -0.9585,0.384 -1.3893,0.5625 -0.1393,-0.4867 -0.2749,-0.9849 -0.4054,-1.5029 z m 51.3376,3.4312 c 2.1927,0.8766 4.0917,1.6122 5.5987,2.1441 0.1674,2.0496 -0.5971,2.3232 -2.992,3.109 -2.4148,0.8347 -6.5255,0.8027 -9.679,-1.6396 1.903,-0.9278 5.3748,-2.7388 7.0723,-3.6135 z m -43.7031,0.4254 c 5.6486,2.6485 8.4346,5.2001 15.5905,6.8797 -2.7876,1.0341 -5.4477,1.9339 -7.863,2.6462 0.8429,-0.6058 1.2014,-1.6845 0.8889,-2.6743 -0.3999,-1.2649 -1.7488,-1.9664 -3.0137,-1.5671 -1.539,0.486 -1.7459,0.5137 -3.5032,-0.6271 -0.3983,-0.2586 -0.8643,-0.3934 -1.3389,-0.3874 -0.8026,0.01 -1.547,0.4209 -1.9842,1.0943 -0.7222,1.1128 -0.4057,2.6004 0.7071,3.3228 1.8454,1.198 3.8235,1.6882 5.7108,1.5394 -1.4819,0.3773 -2.8287,0.6577 -4.0042,0.8232 -3.7717,-2.1048 -6.5908,-3.8364 -6.8036,-8.8638 1.3559,-0.5619 3.318,-1.318 5.6135,-2.1859 z m 34.3991,4.1465 c 0.3289,2.507 3.3658,3.4194 5.2058,4.4186 -4.0175,-0.3513 -9.029,-0.6325 -12.347,-1.6156 1.9103,-0.8594 5.4546,-2.0106 7.1412,-2.803 z m -11.9602,5.3095 c 3.6006,1.2339 6.9671,2.2938 10.4271,3.0711 -1.626,1.31 -3.2013,2.6406 -5.8766,1.6812 -0.6374,-0.2285 0.8042,-1.9557 -1.488,-1.2512 -6.5607,1.8557 -7.7452,-2.2292 -8.5192,-0.1595 -0.3126,0.9451 -0.011,1.9851 0.7606,2.6149 -3.5961,1.563 -7.0982,1.4919 -10.3318,-0.7017 4.566,-1.1856 9.7497,-3.0722 15.0279,-5.2548 z" sodipodi:nodetypes="scccccccccsccccccccccsccccccccscccscccscccccccccccccccccccccccccccccscccccccccccccccccccccccccccccccccscccccccsccccccscscccccccccccccccccccscsssssscccccccccscccscsssccsssssssccccccsccccscccccccccccccccsccccccccccccccscsssscsccccccccsccscccccccssssccsccccccccccsccccc"/>
    </g>
  </g>
</svg>