<?xml version="1.0" ?><!-- Created with Inkscape (http://www.inkscape.org/) --><svg xmlns:inkscape="http://www.inkscape.org/namespaces/inkscape" xmlns:sodipodi="http://sodipodi.sourceforge.net/DTD/sodipodi-0.dtd" xmlns="http://www.w3.org/2000/svg" xmlns:svg="http://www.w3.org/2000/svg" width="129.82343mm" height="127.74687mm" viewBox="0 0 129.82343 127.74687" version="1.1" id="svg88112" inkscape:version="1.1.2 (76b9e6a115, 2022-02-25)" sodipodi:docname="food_watermelon_color.svg">
  <sodipodi:namedview id="namedview88114" pagecolor="#ffffff" bordercolor="#666666" borderopacity="1.0" inkscape:pageshadow="2" inkscape:pageopacity="0.0" inkscape:pagecheckerboard="0" inkscape:document-units="mm" showgrid="false" inkscape:zoom="0.66368547" inkscape:cx="387.98499" inkscape:cy="511.53749" inkscape:window-width="1866" inkscape:window-height="1016" inkscape:window-x="54" inkscape:window-y="27" inkscape:window-maximized="1" inkscape:current-layer="layer1"/>
  <defs id="defs88109"/>
  <g inkscape:label="Capa 1" inkscape:groupmode="layer" id="layer1" transform="translate(-2.2533626,-13.299374)">
    <g id="g88087" transform="translate(-2636.5517,-2376.0981)">
      <path style="color:#000000;overflow:visible;fill:#7db984;fill-opacity:1;stroke:none;stroke-width:1.0088;stroke-linecap:round;stroke-linejoin:round;paint-order:fill markers stroke" d="m 2641.4341,2448.1366 c 14.8985,-46.1631 48.3218,-79.9566 103.2222,-40.494 46.3615,33.3251 11.3322,106.9341 -33.1298,106.2742 -44.4617,-0.6599 -70.7588,-18.4173 -70.0924,-65.7802 z" id="path80367" sodipodi:nodetypes="cssc"/>
      <path id="path81610" style="fill:#45744a;fill-opacity:1;stroke:none;stroke-width:3.77953;stroke-linecap:round;stroke-linejoin:round;paint-order:markers stroke fill;stop-color:#000000" d="m 15658.881,10329.154 c -6.671,0 -11.703,0.963 -11.703,0.963 2.686,10.092 16.316,43.871 31.894,47.014 15.578,3.142 18.289,-8.769 11.092,-31.289 -4.498,-14.076 -20.165,-16.7 -31.283,-16.688 z m -180.725,41.34 c -2.964,0.06 -6.418,0.56 -10.597,1.682 -22.294,5.983 -44.048,45.565 -55.799,62.304 -11.751,16.739 -3.492,35.653 -3.492,35.653 21.352,-12.932 43.779,-31.846 52.777,-38.735 8.997,-6.889 30.15,-1.933 44.721,-8.882 14.57,-6.95 22.762,-17.95 37.334,-19.28 14.57,-1.329 58.35,-10.452 68.691,-15.226 10.34,-4.774 -28.202,-17.708 -42.102,-16.801 -13.9,0.906 -43.847,7.977 -61.037,7.373 -13.967,-0.491 -17.649,-8.362 -30.496,-8.088 z m 168.149,75.957 c -7.457,-0.02 -15.078,2.187 -26.227,9.809 -17.838,12.194 -53.828,17.443 -66.064,21.808 -12.236,4.365 -15.322,21.528 -34.944,27.977 -19.621,6.448 -36.377,15.278 -43.431,26.092 -7.055,10.813 -20.835,9.521 -42.221,16.763 -21.385,7.242 -32.096,20.007 -50.484,36.608 l 7.384,44.543 c 0,0 60.849,-24.008 72.754,-33.334 11.905,-9.325 53.353,-53.075 62.612,-61.805 9.259,-8.73 62.833,-33.133 69.226,-41.367 6.394,-8.234 78.926,-42.858 65.367,-45.338 -5.084,-0.93 -9.498,-1.743 -13.972,-1.756 z m 72.656,20.797 c 0,0 -29.002,30.067 -43.799,39.004 -14.797,8.937 -8.286,20.3 -16.375,34.623 -8.089,14.323 -35.776,17.105 -48.666,26.693 -12.889,9.588 -8.416,21.13 -13.941,34.506 -5.524,13.376 -31.304,24.443 -43.076,32.078 -11.772,7.635 -10.588,9.708 -16.836,25.985 -6.248,16.275 -15.718,34.917 -25.78,47.228 -10.062,12.31 -9.339,30.541 -8.879,46.225 0,0 33.08,18.051 46.627,2.426 13.548,-15.625 31.438,-65.282 38.539,-82.801 7.104,-17.519 38.21,-47.231 52.284,-59.777 14.073,-12.548 27.554,-31.133 28.738,-45.87 1.184,-14.737 12.232,-23.615 30.449,-44.33 18.217,-20.715 20.715,-55.99 20.715,-55.99 z m 35.549,33.006 c -0.327,0.05 -0.553,0.262 -0.641,0.658 -0.94,4.23 -2.887,13.235 -16.316,34.024 -13.43,20.787 -9.67,21.331 -16.115,39.279 -6.446,17.947 -7.183,40.307 -11.616,58.799 -4.432,18.491 -13.968,41.211 -24.711,59.824 -10.744,18.612 -20.346,18.854 -31.291,35.109 -10.945,16.256 -23.702,42.362 -30.013,49.492 0,0 50.426,3.99 64.863,-7.431 14.436,-11.422 6.448,-37.044 10.141,-57.772 3.693,-20.727 22.426,-31.846 36.662,-55.353 14.234,-23.507 16.72,-53.662 15.914,-69.918 -0.806,-16.255 4.633,-40.003 12.22,-56.863 6.876,-15.28 -5.935,-30.312 -9.097,-29.848 z m 54.916,27.459 c -3.422,-0.208 -6.194,3.62 -7.479,9.398 -2.283,10.273 -12.488,106.175 -15.845,119.59 -3.357,13.416 -18.535,56.261 -24.645,78.68 40.355,-20.183 63.388,-73.483 68.625,-101.1 5.238,-27.617 -4.902,-83.997 -11.885,-97.775 -3.055,-6.028 -6.11,-8.631 -8.771,-8.793 z" transform="matrix(0.26458333,0,0,0.26458333,-1427.0649,-338.9427)"/>
      <path style="fill:#030303;fill-opacity:1;stroke-width:1.83143" d="m 2682.9703,2514.7518 c -25.8103,-6.562 -44.2562,-32.3414 -44.1649,-58.7055 0.1155,-15.3893 5.5415,-34.9669 15.78,-45.5299 22.7838,-23.5057 53.8943,-28.0572 82.8749,-10.2835 19.4146,12.848 28.2667,24.8191 30.6585,48.3011 2.0536,20.1651 -1.5391,39.5282 -21.1404,55.9065 -14.595,12.1951 -43.3634,15.5598 -64.0081,10.3113 z m 26.2509,-10.9401 c 2.0144,-4.0998 6.3714,-9.8688 9.6819,-12.82 6.1792,-5.5084 11.3117,-19.4778 11.3576,-30.9142 0.019,-4.2022 0.5101,-4.9143 2.2196,-3.2048 1.7096,1.7094 1.6898,4.6573 -0.088,13.267 -1.2577,6.0881 -2.7983,12.4752 -3.4242,14.1935 -0.9905,2.72 -0.6235,2.6728 2.8357,-0.3647 2.1854,-1.9187 3.9735,-5.4325 3.9735,-7.8083 0,-2.3759 0.9841,-5.8957 2.187,-7.822 1.7045,-2.7291 1.681,-4.6139 -0.1062,-8.5376 -2.0013,-4.3923 -1.8083,-5.6925 1.5094,-10.1799 3.1813,-4.3031 3.4349,-5.7343 1.5499,-8.7527 -3.0059,-4.8128 -0.062,-7.4961 3.2518,-2.9642 3.2069,4.3856 3.3206,8.7195 0.308,11.743 -1.259,1.2637 -2.3846,6.5794 -2.5009,11.8127 -0.296,13.3017 -2.2552,19.5636 -8.298,26.5195 -2.8744,3.3087 -5.2261,8.0475 -5.2261,10.5307 0,2.9467 -1.0335,4.5149 -2.9761,4.5149 -2.3298,0 -2.7374,-1.1928 -1.8772,-5.4943 0.6043,-3.0219 0.5664,-5.4943 -0.084,-5.4943 -2.8343,0 -7.8819,6.3977 -7.8819,9.9905 0,2.1607 -0.9753,4.9036 -2.1673,6.0955 -3.4821,3.4823 -1.2067,3.7915 8.7977,1.1954 9.8543,-2.5571 22.2608,-11.3175 29.4653,-19.0181 5.6003,-5.9857 8.3925,-16.7708 6.8823,-29.8588 -1.6469,-14.2738 -4.5178,-15.1958 -4.5178,-1.4507 0,11.5642 -4.9573,33.0462 -7.6261,33.0462 -1.9044,0 -1.9984,0.7556 1.2358,-9.906 1.5,-4.9447 2.7385,-14.4224 2.7524,-21.0615 0.044,-21.4756 3.1788,-25.7529 9.1814,-12.529 3.5088,7.7301 3.5334,7.7446 3.5734,2.1047 0.053,-7.5439 -3.429,-17.214 -6.199,-17.214 -1.2198,0 -3.8176,-1.1853 -5.773,-2.6338 -3.5168,-2.6056 -3.5163,-2.6627 0.038,-5.2961 3.0762,-2.2788 3.2374,-3.0916 1.12,-5.643 -1.8449,-2.2228 -4.1142,-2.673 -8.9258,-1.7705 -6.796,1.2751 -6.6474,1.6355 -3.0105,-7.3078 0.6305,-1.5501 -1.4645,-3.9705 -5.4943,-6.3481 -6.2852,-3.7085 -6.5129,-3.7207 -6.5129,-0.35 0,1.9212 -0.8469,4.0164 -1.882,4.656 -2.8116,1.7377 -13.7216,-5.3908 -13.448,-8.7868 0.1668,-2.0756 -2.1879,-3.4632 -7.9718,-4.6969 -8.0543,-1.7177 -14.6582,-0.7976 -21.6937,3.0228 -1.9458,1.0565 -4.9798,2.3675 -6.7425,2.9129 -6.0137,1.8613 -3.6051,5.2725 2.7471,3.8913 13.1512,-2.86 35.5447,-0.018 40.7407,5.1869 4.356,4.3559 2.2033,5.8231 -4.4806,3.0543 -3.6196,-1.4992 -7.8998,-1.7834 -12.421,-0.825 -3.7941,0.8043 -9.652,1.5285 -13.0172,1.6091 -3.7968,0.092 -7.0967,1.4838 -8.6946,3.6696 -1.732,2.3681 -4.8776,3.56 -9.5984,3.6367 -5.6953,0.092 -8.2753,1.4428 -13.6522,7.1446 -29.0738,17.4579 -7.02,70.989 22.2246,78.1186 3.8864,-0.018 11.2609,-10.8153 11.2609,-16.4906 0,-4.0639 2.8367,-7.7414 17.4904,-22.6742 10.1183,-10.3112 9.5669,-16.6552 -0.9742,-11.2043 -4.5156,2.335 -5.3623,3.7019 -4.4772,7.2279 0.867,3.4542 0.2122,4.6158 -3.1848,5.6492 -2.3514,0.7156 -6.954,3.3076 -10.2277,5.7602 -3.2739,2.4525 -5.9524,3.6049 -5.9524,2.5606 0,-1.0443 3.2966,-4.0803 7.3259,-6.7467 5.2224,-3.4559 7.3257,-6.1316 7.3257,-9.319 0,-3.5008 1.6115,-5.1374 7.4249,-7.5402 5.588,-2.3098 7.691,-4.3533 8.5014,-8.2607 0.6104,-2.9446 2.7475,-5.8241 4.9372,-6.6528 5.2921,-2.0029 7.5654,-0.2482 3.5156,2.7134 -1.8217,1.3318 -2.7933,2.9402 -2.1594,3.5742 0.6339,0.6339 2.5157,-0.2101 4.1812,-1.8757 2.2933,-2.2933 2.5292,-3.6299 0.9723,-5.5061 -1.5961,-1.923 -0.6467,-3.9288 4.2423,-8.963 3.4645,-3.567 6.8335,-6.4856 7.4874,-6.4856 2.1652,0 1.2315,5.0101 -1.3298,7.1358 -1.3849,1.1494 -2.518,4.2905 -2.518,6.9801 0,3.4208 -1.9954,6.491 -6.6388,10.2163 -5.1162,4.1041 -6.6392,6.6586 -6.6392,11.1342 0,4.0672 -1.27,6.6215 -4.2361,8.5216 -7.568,4.8479 -19.0073,19.0178 -21.4105,26.5221 -1.2903,4.0292 -3.4651,8.9515 -4.8325,10.9382 -3.4079,4.9508 -3.1474,6.0723 1.6341,7.0371 9.7649,1.9703 13.1813,0.5352 16.9408,-7.1153 z m -34.8687,-4.5654 c -1.2534,-2.0281 4.0309,-9.0417 6.8121,-9.0417 0.8771,0 0.3163,2.4724 -1.2465,5.4943 -3.114,6.0221 -3.7757,6.4437 -5.5656,3.5474 z m -21.6123,-26.7572 c -2.5538,-2.5539 -1.0241,-5.7426 3.2726,-6.821 2.4652,-0.6186 8.7702,-5.2362 14.0112,-10.2613 5.2411,-5.0251 12.1274,-9.8539 15.3026,-10.7305 3.1754,-0.8768 8.1164,-3.7658 10.9807,-6.4201 l 5.2071,-4.826 h -5.0937 c -3.081,0 -6.7707,1.8093 -9.3371,4.5786 -2.3338,2.5182 -6.1371,4.5456 -8.4517,4.5053 -4.1187,-0.072 -4.1056,-0.1282 0.6112,-2.6919 2.6507,-1.4402 5.2811,-3.822 5.8454,-5.2928 0.5746,-1.4974 4.6733,-3.2211 9.3141,-3.9171 6.0097,-0.9012 8.606,-2.2448 9.4449,-4.888 0.8971,-2.8263 2.3685,-3.4675 6.5508,-2.8536 2.9667,0.4353 5.8186,0.1044 6.3372,-0.7344 0.5189,-0.8393 3.0236,-1.5261 5.5662,-1.5261 7.651,0 4.0819,4.1103 -9.5418,10.9885 -7.3998,3.7362 -13.4502,8.129 -14.5039,10.5308 -1.215,2.7695 -3.3861,4.1207 -6.6213,4.1207 -6.1467,0 -23.6208,13.9462 -23.6208,18.8517 0,2.8151 -0.964,3.3683 -4.6439,2.6649 -3.1747,-0.607 -5.3994,0.191 -7.0324,2.5218 -1.3134,1.8754 -2.9322,2.8657 -3.5974,2.2005 z m 59.228,-44.5532 c 0,-1.0073 -1.236,-1.8314 -2.747,-1.8314 -1.511,0 -2.7473,0.8241 -2.7473,1.8314 0,1.0073 1.2363,1.8314 2.7473,1.8314 1.511,0 2.747,-0.8241 2.747,-1.8314 z m -64.1002,29.4782 c 0,-2.6968 7.1356,-6.911 14.1938,-8.3825 3.2737,-0.6826 5.9521,-2.1369 5.9521,-3.2321 0,-1.0952 0.5296,-1.4617 1.1766,-0.8144 2.029,2.0288 -3.2646,6.7594 -7.564,6.7594 -2.2589,0 -6.2788,1.7082 -8.933,3.7958 -2.6539,2.0877 -4.8255,2.9309 -4.8255,1.8738 z m 11.4785,-35.8307 c 4.4537,-5.5814 5.6313,-6.1384 9.7046,-4.5897 3.7072,1.4092 5.7237,0.9584 10.065,-2.2514 3.3428,-2.4716 7.8842,-3.9442 11.8188,-3.8327 7.7316,0.2193 10.1826,-2.5554 3.6956,-4.1836 -2.7892,-0.6999 -7.1526,0 -10.8435,1.7593 -5.0214,2.3829 -7.2995,2.539 -12.1882,0.8346 -5.812,-2.0259 -6.2452,-1.8267 -12.9857,5.9709 -6.5505,7.5779 -8.838,12.6452 -5.7085,12.6451 0.7554,0 3.6543,-2.8586 6.4419,-6.3525 z m 64.9445,-20.5425 c 0.3558,-1.0677 -1.2051,-2.4259 -3.4688,-3.0178 -5.2403,-1.3703 -6.2158,-0.3707 -3.0866,3.1618 2.6755,3.0204 5.5214,2.9579 6.5554,-0.1447 z" id="path80369" sodipodi:nodetypes="sssssssssssssssssssssssssssssssssssssssssssssssscsssssccsssssssssssssssssssssssssssssssssssssscssssssssssssssssssssssssssssssssssscsssssscssscss"/>
    </g>
  </g>
</svg>